<?xml version="1.0" encoding="UTF-8" standalone="no"?>
<svg
   version="1.1"
   id="Layer_1"
   x="0px"
   y="0px"
   width="199"
   viewBox="0 0 199 191"
   enable-background="new 0 0 199 191"
   xml:space="preserve"
   height="191"
   xmlns="http://www.w3.org/2000/svg"
   xmlns:svg="http://www.w3.org/2000/svg"><defs
   id="defs226" />


































































































































































































































<path
   fill="#f9bd99"
   opacity="1"
   stroke="none"
   d="m 126.1562,161.53004 c -2.70157,3.08723 -5.30728,6.26522 -8.12561,9.24192 -5.11764,5.40523 -10.3618,10.69068 -15.59586,16.07 -8.47665,-8.27564 -16.41316,-16.00243 -24.294,-23.78559 -0.36838,-0.36383 -0.2401,-1.23054 -0.29805,-2.24206 0.0451,-0.37903 0.0232,-0.35047 0.26703,-0.44278 0.40476,-0.38855 0.56564,-0.68479 0.71693,-0.97475 -0.01,0.006 -0.0249,0.0234 0.23375,-0.0455 0.43074,-0.36752 0.60286,-0.66609 0.76605,-0.95678 -0.009,0.008 -0.0247,0.0257 0.23381,-0.0434 0.43068,-0.3676 0.60289,-0.66602 0.76618,-0.95657 -0.009,0.008 -0.0246,0.0257 0.23379,-0.0436 0.43065,-0.36763 0.60289,-0.66596 0.76621,-0.95644 -0.009,0.008 -0.0246,0.0257 0.23379,-0.0436 0.43064,-0.36763 0.60289,-0.66594 0.76621,-0.9564 -0.009,0.008 -0.0246,0.0257 0.23379,-0.0436 0.43063,-0.36763 0.60287,-0.66593 0.76619,-0.95639 -0.009,0.008 -0.0246,0.0257 0.23381,-0.0436 0.43062,-0.36761 0.60286,-0.66591 0.76619,-0.95637 -0.009,0.008 -0.0246,0.0257 0.23384,-0.0436 0.43062,-0.36762 0.60285,-0.66591 0.76616,-0.95639 -0.009,0.008 -0.0246,0.0257 0.23386,-0.0436 0.43063,-0.36762 0.60284,-0.66594 0.76614,-0.95642 -0.009,0.008 -0.0246,0.0257 0.23387,-0.0436 0.43064,-0.3676 0.60285,-0.66594 0.76614,-0.95643 -0.009,0.008 -0.0246,0.0257 0.23386,-0.0436 0.43063,-0.3676 0.60284,-0.66596 0.76613,-0.95645 -0.009,0.008 -0.0246,0.0257 0.23386,-0.0436 0.43064,-0.3676 0.60285,-0.66594 0.76615,-0.95643 -0.009,0.008 -0.0246,0.0257 0.23384,-0.0436 0.43063,-0.3676 0.60285,-0.66593 0.76615,-0.95642 -0.009,0.008 -0.0246,0.0257 0.23384,-0.0436 0.43062,-0.36762 0.60285,-0.66593 0.76616,-0.95639 -0.009,0.008 -0.0246,0.0257 0.23383,-0.0436 0.43062,-0.36763 0.60285,-0.66593 0.76617,-0.95639 -0.009,0.008 -0.0246,0.0257 0.23383,-0.0436 0.43063,-0.36762 0.60287,-0.66593 0.76619,-0.95636 -0.009,0.008 -0.0246,0.0257 0.23379,-0.0436 0.43064,-0.36765 0.60289,-0.66596 0.76621,-0.95641 -0.009,0.008 -0.0246,0.0257 0.23378,-0.0436 0.43066,-0.36765 0.60291,-0.66596 0.76623,-0.95641 -0.009,0.008 -0.0246,0.0257 0.23377,-0.0436 0.43065,-0.36765 0.6029,-0.66596 0.76623,-0.95642 -0.009,0.008 -0.0246,0.0258 0.23372,-0.0436 0.43066,-0.36768 0.60295,-0.66597 0.76629,-0.95639 -0.009,0.008 -0.0247,0.0258 0.23358,-0.0438 0.43063,-0.36775 0.60303,-0.66595 0.76645,-0.95626 -0.009,0.008 -0.0247,0.0259 0.23319,-0.0442 0.430613,-0.36798 0.603303,-0.66591 0.766643,-0.95586 -0.009,0.008 -0.0264,0.0257 0.271817,-0.0738 0.6125,-0.37776 0.92677,-0.65597 1.35998,-0.97738 0.11891,-0.0432 0.35529,-0.13338 0.4696,-0.072 0.11431,0.0614 0.36835,0.11451 0.59887,0.32867 0.59017,0.41623 0.94983,0.61833 1.2999,0.81206 -0.01,-0.008 -0.0275,-0.0265 0.0506,0.22624 0.37111,0.42932 0.66419,0.60594 0.94828,0.77393 -0.009,-0.009 -0.0263,-0.0266 0.0517,0.2261 0.37108,0.42934 0.66419,0.60593 0.94833,0.7739 -0.009,-0.009 -0.0263,-0.0266 0.0516,0.22616 0.37106,0.42934 0.6642,0.6059 0.94835,0.77382 -0.009,-0.009 -0.0263,-0.0266 0.0516,0.2262 0.37106,0.42933 0.6642,0.60589 0.94837,0.77382 -0.009,-0.009 -0.0263,-0.0266 0.0517,0.22613 0.37108,0.42934 0.6642,0.60591 0.94832,0.77387 -0.009,-0.009 -0.0263,-0.0266 0.0517,0.22613 0.3711,0.42934 0.6642,0.60593 0.94832,0.77387 -0.009,-0.009 -0.0263,-0.0266 0.0517,0.2261 0.37111,0.42934 0.66421,0.60594 0.94832,0.7739 -0.009,-0.009 -0.0263,-0.0266 0.0517,0.22613 0.37109,0.42932 0.66421,0.60591 0.94833,0.77387 -0.009,-0.009 -0.0263,-0.0266 0.0516,0.22616 0.37105,0.42934 0.66419,0.6059 0.94835,0.77381 -0.009,-0.009 -0.0263,-0.0266 0.0515,0.22628 0.371,0.42935 0.66421,0.60584 0.94845,0.7737 -0.009,-0.009 -0.0262,-0.0265 0.0514,0.22644 0.37092,0.42935 0.66422,0.60574 0.94857,0.77354 -0.009,-0.009 -0.0262,-0.0265 0.0513,0.22657 0.37085,0.42936 0.66423,0.60568 0.94867,0.7734 -0.009,-0.009 -0.0261,-0.0264 0.0513,0.22666 0.37082,0.42937 0.66424,0.60565 0.94872,0.77334 -0.009,-0.009 -0.0261,-0.0264 0.0513,0.22666 0.37082,0.42938 0.66425,0.60565 0.94873,0.77334 -0.009,-0.009 -0.0261,-0.0264 0.0513,0.22663 0.37083,0.42938 0.66423,0.60568 0.9487,0.77339 -0.009,-0.009 -0.0261,-0.0265 0.0513,0.22659 0.37086,0.42937 0.66425,0.60568 0.94868,0.77341 -0.009,-0.009 -0.0261,-0.0265 0.0513,0.22658 0.37085,0.42936 0.66423,0.60568 0.94867,0.77342 -0.009,-0.009 -0.0261,-0.0265 0.0513,0.22658 0.37084,0.42938 0.66423,0.60569 0.94868,0.77342 -0.009,-0.009 -0.0261,-0.0265 0.0513,0.22661 0.37083,0.42938 0.66423,0.60566 0.9487,0.77337 -0.009,-0.009 -0.0261,-0.0264 0.0512,0.22672 0.37077,0.42938 0.66423,0.60561 0.94877,0.77325 -0.009,-0.009 -0.026,-0.0264 0.051,0.22699 0.37064,0.42939 0.66427,0.60543 0.94923,0.77349 -0.009,-0.008 -0.0273,-0.0224 0.0539,0.23948 0.34738,0.51113 0.61352,0.76041 0.93585,1.24648 0.0562,0.2368 0.34096,0.63158 0.34095,0.63158 z"
   id="path6-6-9" /><path
   fill="#f9bd99"
   opacity="1"
   stroke="none"
   d="m 126.45746,34.586063 c -2.70157,3.08723 -5.30728,6.26522 -8.12561,9.24192 -5.11764,5.40523 -10.3618,10.69068 -15.59586,16.07 -8.47665,-8.27564 -16.41316,-16.00243 -24.294,-23.78559 -0.36838,-0.36383 -0.2401,-1.23054 -0.29805,-2.24206 0.0451,-0.37903 0.0232,-0.35047 0.26703,-0.44278 0.40476,-0.38855 0.56564,-0.68479 0.71693,-0.97475 -0.01,0.006 -0.0249,0.0234 0.23375,-0.0455 0.43074,-0.36752 0.60286,-0.66609 0.76605,-0.95678 -0.009,0.008 -0.0247,0.0257 0.23381,-0.0434 0.43067,-0.3676 0.60288,-0.66602 0.76618,-0.95657 -0.009,0.008 -0.0246,0.0257 0.23378,-0.0436 0.43065,-0.36763 0.6029,-0.66596 0.76622,-0.95644 -0.009,0.008 -0.0246,0.0257 0.23379,-0.0436 0.43063,-0.36763 0.60288,-0.66594 0.76621,-0.9564 -0.009,0.008 -0.0246,0.0257 0.23379,-0.0436 0.43063,-0.36763 0.60287,-0.66593 0.76619,-0.95639 -0.009,0.008 -0.0246,0.0257 0.23381,-0.0436 0.43062,-0.36761 0.60286,-0.66591 0.76619,-0.95637 -0.009,0.008 -0.0245,0.0257 0.23384,-0.0436 0.43062,-0.36762 0.60285,-0.66591 0.76616,-0.95639 -0.009,0.008 -0.0245,0.0257 0.23386,-0.0436 0.43062,-0.36762 0.60284,-0.66594 0.76614,-0.95642 -0.009,0.008 -0.0246,0.0257 0.23386,-0.0436 0.43065,-0.3676 0.60286,-0.66594 0.76615,-0.95643 -0.009,0.008 -0.0246,0.0257 0.23385,-0.0436 0.43064,-0.3676 0.60285,-0.66596 0.76614,-0.95645 -0.009,0.008 -0.0246,0.0257 0.23386,-0.0436 0.43064,-0.3676 0.60285,-0.66594 0.76615,-0.95643 -0.009,0.008 -0.0246,0.0257 0.23383,-0.0436 0.43064,-0.3676 0.60285,-0.66593 0.76616,-0.95642 -0.009,0.008 -0.0245,0.0257 0.23383,-0.0436 0.43062,-0.36762 0.60286,-0.66593 0.76617,-0.95639 -0.009,0.008 -0.0245,0.0257 0.23383,-0.0436 0.43061,-0.36763 0.60285,-0.66593 0.76617,-0.95639 -0.009,0.008 -0.0246,0.0257 0.23383,-0.0436 0.43062,-0.36762 0.60286,-0.66593 0.76619,-0.95636 -0.009,0.008 -0.0246,0.0257 0.23379,-0.0436 0.43063,-0.36765 0.60289,-0.66596 0.76621,-0.95641 -0.009,0.008 -0.0246,0.0257 0.23378,-0.0436 0.43065,-0.36765 0.60291,-0.66596 0.76623,-0.95641 -0.009,0.008 -0.0246,0.0257 0.23377,-0.0436 0.43064,-0.36765 0.6029,-0.66596 0.76622,-0.95642 -0.009,0.008 -0.0246,0.0258 0.23373,-0.0436 0.43066,-0.36768 0.60295,-0.66597 0.76629,-0.95639 -0.009,0.008 -0.0247,0.0258 0.23357,-0.0438 0.43064,-0.36775 0.60304,-0.66595 0.76646,-0.95626 -0.009,0.008 -0.0247,0.0259 0.23319,-0.0442 0.43061,-0.36798 0.6033,-0.66591 0.76663,-0.95586 -0.009,0.008 -0.0264,0.0257 0.27182,-0.0738 0.61251,-0.37776 0.92678,-0.65597 1.35999,-0.97738 0.11891,-0.0432 0.35529,-0.13338 0.4696,-0.072 0.11431,0.0614 0.36835,0.11451 0.59887,0.32867 0.59017,0.41623 0.94983,0.61833 1.2999,0.81206 -0.01,-0.008 -0.0275,-0.0265 0.0506,0.22624 0.37111,0.42932 0.66419,0.60594 0.94828,0.77393 -0.009,-0.009 -0.0263,-0.0266 0.0517,0.2261 0.37108,0.42934 0.66419,0.60593 0.94833,0.7739 -0.009,-0.009 -0.0263,-0.0266 0.0516,0.22616 0.37106,0.42934 0.6642,0.6059 0.94835,0.77382 -0.009,-0.009 -0.0263,-0.0266 0.0516,0.2262 0.37106,0.42933 0.6642,0.60589 0.94837,0.77382 -0.009,-0.009 -0.0263,-0.0266 0.0517,0.22613 0.37108,0.42934 0.6642,0.60591 0.94832,0.77387 -0.009,-0.009 -0.0263,-0.0266 0.0517,0.22613 0.3711,0.42934 0.6642,0.60593 0.94832,0.77387 -0.009,-0.009 -0.0263,-0.0266 0.0517,0.2261 0.37111,0.42934 0.66421,0.60594 0.94832,0.7739 -0.009,-0.009 -0.0263,-0.0266 0.0517,0.22613 0.37109,0.42932 0.66421,0.60591 0.94833,0.77387 -0.009,-0.009 -0.0263,-0.0266 0.0516,0.22616 0.37105,0.42934 0.66419,0.6059 0.94835,0.77381 -0.009,-0.009 -0.0263,-0.0266 0.0515,0.22628 0.371,0.42935 0.66421,0.60584 0.94845,0.7737 -0.009,-0.009 -0.0262,-0.0265 0.0514,0.22644 0.37092,0.42935 0.66422,0.60574 0.94857,0.77354 -0.009,-0.009 -0.0262,-0.0265 0.0513,0.22657 0.37085,0.42936 0.66423,0.60568 0.94867,0.7734 -0.009,-0.009 -0.0261,-0.0264 0.0513,0.22666 0.37082,0.42937 0.66424,0.60565 0.94872,0.77334 -0.009,-0.009 -0.0261,-0.0264 0.0513,0.22666 0.37082,0.42938 0.66425,0.60565 0.94873,0.77334 -0.009,-0.009 -0.0261,-0.0264 0.0513,0.22663 0.37083,0.42938 0.66423,0.60568 0.9487,0.77339 -0.009,-0.009 -0.0261,-0.0265 0.0513,0.22659 0.37086,0.42937 0.66425,0.60568 0.94868,0.77341 -0.009,-0.009 -0.0261,-0.0265 0.0513,0.22658 0.37085,0.42936 0.66423,0.60568 0.94867,0.77342 -0.009,-0.009 -0.0261,-0.0265 0.0513,0.22658 0.37084,0.42938 0.66423,0.60569 0.94868,0.77342 -0.009,-0.009 -0.0261,-0.0265 0.0513,0.22661 0.37083,0.42938 0.66423,0.60566 0.9487,0.77337 -0.009,-0.009 -0.0261,-0.0264 0.0512,0.22672 0.37077,0.42938 0.66423,0.60561 0.94877,0.77325 -0.009,-0.009 -0.026,-0.0264 0.051,0.22699 0.37064,0.42939 0.66427,0.60543 0.94923,0.77349 -0.009,-0.008 -0.0273,-0.0224 0.0539,0.23948 0.34738,0.51113 0.61352,0.76041 0.93585,1.24648 0.0562,0.2368 0.34096,0.63158 0.34095,0.63158 z"
   id="path6-61-3" /><path
   fill="#f9bd99"
   opacity="1"
   stroke="none"
   d="m 190.32676,99.518966 c -2.70157,3.087234 -5.30727,6.265224 -8.12561,9.241924 -5.11763,5.40523 -10.3618,10.69068 -15.59586,16.07 -8.47665,-8.27564 -16.41315,-16.00243 -24.294,-23.78559 -0.36838,-0.36383 -0.2401,-1.230544 -0.29805,-2.242064 0.0451,-0.37903 0.0232,-0.35047 0.26703,-0.44278 0.40476,-0.38855 0.56564,-0.68479 0.71693,-0.97475 -0.01,0.006 -0.0249,0.0234 0.23375,-0.0455 0.43074,-0.36752 0.60286,-0.66609 0.76606,-0.95678 -0.009,0.008 -0.0247,0.0257 0.23381,-0.0434 0.43067,-0.3676 0.60288,-0.66602 0.76617,-0.95657 -0.009,0.008 -0.0246,0.0257 0.23379,-0.0436 0.43065,-0.36763 0.6029,-0.66596 0.76621,-0.95644 -0.009,0.008 -0.0246,0.0257 0.2338,-0.0436 0.43063,-0.36763 0.60288,-0.66594 0.7662,-0.9564 -0.009,0.008 -0.0246,0.0257 0.2338,-0.0436 0.43062,-0.36763 0.60286,-0.66593 0.76619,-0.95639 -0.009,0.008 -0.0246,0.0257 0.23381,-0.0436 0.43061,-0.36761 0.60286,-0.66591 0.76619,-0.95637 -0.009,0.008 -0.0245,0.0257 0.23384,-0.0436 0.43061,-0.36762 0.60284,-0.66591 0.76616,-0.95639 -0.009,0.008 -0.0245,0.0257 0.23385,-0.0436 0.43063,-0.36762 0.60285,-0.66594 0.76615,-0.95642 -0.009,0.008 -0.0246,0.0257 0.23386,-0.0436 0.43064,-0.3676 0.60285,-0.66594 0.76614,-0.95643 -0.009,0.008 -0.0246,0.0257 0.23386,-0.0436 0.43063,-0.3676 0.60284,-0.66596 0.76614,-0.95645 -0.009,0.008 -0.0246,0.0257 0.23385,-0.0436 0.43064,-0.3676 0.60285,-0.66594 0.76615,-0.95643 -0.009,0.008 -0.0246,0.0257 0.23384,-0.0436 0.43063,-0.3676 0.60285,-0.66593 0.76616,-0.95642 -0.009,0.008 -0.0245,0.0257 0.23383,-0.0436 0.43062,-0.36762 0.60285,-0.66593 0.76617,-0.95639 -0.009,0.008 -0.0245,0.0257 0.23382,-0.0436 0.43062,-0.36763 0.60285,-0.66593 0.76618,-0.95639 -0.009,0.008 -0.0246,0.0257 0.23382,-0.0436 0.43063,-0.36762 0.60287,-0.66593 0.76619,-0.95636 -0.009,0.008 -0.0246,0.0257 0.2338,-0.0436 0.43063,-0.36765 0.60289,-0.66596 0.7662,-0.95641 -0.009,0.008 -0.0246,0.0257 0.23378,-0.0436 0.43066,-0.36765 0.60291,-0.66596 0.76624,-0.95641 -0.009,0.008 -0.0246,0.0257 0.23376,-0.0436 0.43065,-0.36765 0.60291,-0.66596 0.76623,-0.95642 -0.009,0.008 -0.0246,0.0258 0.23373,-0.0436 0.43065,-0.36768 0.60295,-0.66597 0.76628,-0.95639 -0.009,0.008 -0.0247,0.0258 0.23358,-0.0438 0.43063,-0.36775 0.60303,-0.66595 0.76645,-0.95626 -0.009,0.008 -0.0247,0.0259 0.23319,-0.0442 0.43061,-0.36798 0.6033,-0.66591 0.76664,-0.95586 -0.009,0.008 -0.0264,0.0257 0.27182,-0.0738 0.6125,-0.37776 0.92677,-0.65597 1.35999,-0.97738 0.1189,-0.0432 0.35528,-0.13338 0.46959,-0.072 0.11432,0.0614 0.36835,0.11451 0.59888,0.32867 0.59017,0.41623 0.94983,0.61833 1.29989,0.81206 -0.01,-0.008 -0.0275,-0.0265 0.0506,0.22624 0.37111,0.42932 0.66419,0.60594 0.94827,0.77393 -0.009,-0.009 -0.0263,-0.0266 0.0517,0.2261 0.37108,0.42934 0.66418,0.60593 0.94833,0.7739 -0.009,-0.009 -0.0263,-0.0266 0.0516,0.22616 0.37106,0.42934 0.6642,0.6059 0.94835,0.77382 -0.009,-0.009 -0.0263,-0.0266 0.0516,0.2262 0.37106,0.42933 0.6642,0.60589 0.94837,0.77382 -0.009,-0.009 -0.0263,-0.0266 0.0517,0.22613 0.37108,0.42934 0.6642,0.60591 0.94832,0.77387 -0.009,-0.009 -0.0263,-0.0266 0.0517,0.22613 0.3711,0.42934 0.6642,0.60593 0.94832,0.77387 -0.009,-0.009 -0.0263,-0.0266 0.0517,0.2261 0.37111,0.42934 0.66421,0.60594 0.94832,0.7739 -0.009,-0.009 -0.0263,-0.0266 0.0517,0.22613 0.37109,0.42932 0.66421,0.60591 0.94833,0.77387 -0.009,-0.009 -0.0263,-0.0266 0.0516,0.22616 0.37105,0.42934 0.66419,0.6059 0.94835,0.77381 -0.009,-0.009 -0.0263,-0.0266 0.0515,0.22628 0.371,0.42935 0.66421,0.60584 0.94845,0.7737 -0.009,-0.009 -0.0262,-0.0265 0.0514,0.22644 0.37092,0.42935 0.66422,0.60574 0.94857,0.77354 -0.009,-0.009 -0.0262,-0.0265 0.0513,0.22657 0.37085,0.42936 0.66423,0.60568 0.94867,0.7734 -0.009,-0.009 -0.0261,-0.0264 0.0513,0.22666 0.37082,0.42937 0.66424,0.60565 0.94872,0.77334 -0.009,-0.009 -0.0261,-0.0264 0.0513,0.22666 0.37082,0.42938 0.66425,0.60565 0.94873,0.77334 -0.009,-0.009 -0.0261,-0.0264 0.0513,0.22663 0.37083,0.42938 0.66423,0.60568 0.9487,0.77339 -0.009,-0.009 -0.0261,-0.0265 0.0513,0.22659 0.37086,0.42937 0.66425,0.60568 0.94868,0.77341 -0.009,-0.009 -0.0261,-0.0265 0.0513,0.22658 0.37085,0.42936 0.66423,0.60568 0.94867,0.77342 -0.009,-0.009 -0.0261,-0.0265 0.0513,0.22658 0.37084,0.42938 0.66423,0.60569 0.94868,0.77342 -0.009,-0.009 -0.0261,-0.0265 0.0513,0.22661 0.37083,0.42938 0.66423,0.60566 0.9487,0.77337 -0.009,-0.009 -0.0261,-0.0264 0.0512,0.22672 0.37077,0.42938 0.66423,0.60561 0.94877,0.77325 -0.009,-0.009 -0.026,-0.0264 0.051,0.22699 0.37064,0.42939 0.66427,0.60543 0.94923,0.77349 -0.009,-0.008 -0.0273,-0.0224 0.0539,0.23948 0.34738,0.51113 0.61352,0.76041 0.93585,1.24648 0.0562,0.2368 0.34096,0.63158 0.34095,0.63158 z"
   id="path6-7-7" /><path
   fill="#f9bd99"
   opacity="1"
   stroke="none"
   d="m 63.1294,100.45119 c -2.70157,3.08723 -5.30728,6.26522 -8.12561,9.24192 -5.11764,5.40523 -10.3618,10.69068 -15.59586,16.07 -8.47665,-8.27564 -16.41316,-16.00243 -24.294,-23.78559 -0.36838,-0.36383 -0.2401,-1.23054 -0.29805,-2.242061 0.0451,-0.37903 0.0232,-0.35047 0.26703,-0.44278 0.40476,-0.38855 0.56564,-0.68479 0.71693,-0.97475 -0.01,0.006 -0.0249,0.0234 0.23375,-0.0455 0.43074,-0.36752 0.60286,-0.66609 0.76605,-0.95678 -0.009,0.008 -0.0247,0.0257 0.23381,-0.0434 0.43067,-0.3676 0.60288,-0.66602 0.76618,-0.95657 -0.009,0.008 -0.0246,0.0257 0.23378,-0.0436 0.43065,-0.36763 0.6029,-0.66596 0.76622,-0.95644 -0.009,0.008 -0.0246,0.0257 0.23379,-0.0436 0.43064,-0.36763 0.60288,-0.66594 0.76621,-0.9564 -0.009,0.008 -0.0246,0.0257 0.23379,-0.0436 0.43063,-0.36763 0.60287,-0.66593 0.76619,-0.95639 -0.009,0.008 -0.0246,0.0257 0.23381,-0.0436 0.43062,-0.36761 0.60286,-0.66591 0.76619,-0.95637 -0.009,0.008 -0.0246,0.0257 0.23384,-0.0436 0.43062,-0.36762 0.60285,-0.66591 0.76616,-0.95639 -0.009,0.008 -0.0246,0.0257 0.23386,-0.0436 0.43062,-0.36762 0.60284,-0.66594 0.76614,-0.95642 -0.009,0.008 -0.0246,0.0257 0.23387,-0.0436 0.43064,-0.3676 0.60285,-0.66594 0.76614,-0.95643 -0.009,0.008 -0.0246,0.0257 0.23386,-0.0436 0.43063,-0.3676 0.60284,-0.66596 0.76613,-0.95645 -0.009,0.008 -0.0246,0.0257 0.23386,-0.0436 0.43064,-0.3676 0.60285,-0.66594 0.76615,-0.95643 -0.009,0.008 -0.0246,0.0257 0.23383,-0.0436 0.43064,-0.3676 0.60285,-0.66593 0.76616,-0.95642 -0.009,0.008 -0.0246,0.0257 0.23383,-0.0436 0.43062,-0.36762 0.60286,-0.66593 0.76617,-0.95639 -0.009,0.008 -0.0246,0.0257 0.23383,-0.0436 0.43062,-0.36763 0.60285,-0.66593 0.76617,-0.95639 -0.009,0.008 -0.0246,0.0257 0.23383,-0.0436 0.43062,-0.36762 0.60286,-0.66593 0.76619,-0.95636 -0.009,0.008 -0.0246,0.0257 0.23379,-0.0436 0.43064,-0.36765 0.60289,-0.66596 0.76621,-0.95641 -0.009,0.008 -0.0246,0.0257 0.23378,-0.0436 0.43065,-0.36765 0.60291,-0.66596 0.76623,-0.95641 -0.009,0.008 -0.0246,0.0257 0.23377,-0.0436 0.43065,-0.36765 0.6029,-0.66596 0.76622,-0.95642 -0.009,0.008 -0.0246,0.0258 0.23373,-0.0436 0.43066,-0.36768 0.60295,-0.66597 0.76629,-0.95639 -0.009,0.008 -0.0247,0.0258 0.23357,-0.0438 0.43064,-0.36775 0.60304,-0.66595 0.76646,-0.95626 -0.009,0.008 -0.0247,0.0259 0.23319,-0.0442 0.43061,-0.36798 0.6033,-0.66591 0.76663,-0.95586 -0.009,0.008 -0.0264,0.0257 0.27182,-0.0738 0.61251,-0.37776 0.92678,-0.65597 1.35999,-0.97738 0.11891,-0.0432 0.35529,-0.13338 0.4696,-0.072 0.11431,0.0614 0.36835,0.11451 0.59887,0.32867 0.59017,0.41623 0.94983,0.61833 1.2999,0.81206 -0.01,-0.008 -0.0275,-0.0265 0.0506,0.22624 0.37111,0.42932 0.66419,0.60594 0.94828,0.77393 -0.009,-0.009 -0.0263,-0.0266 0.0517,0.2261 0.37108,0.42934 0.66419,0.60593 0.94833,0.7739 -0.009,-0.009 -0.0263,-0.0266 0.0516,0.22616 0.37106,0.42934 0.6642,0.6059 0.94835,0.77382 -0.009,-0.009 -0.0263,-0.0266 0.0516,0.2262 0.37106,0.42933 0.6642,0.60589 0.94837,0.77382 -0.009,-0.009 -0.0263,-0.0266 0.0517,0.22613 0.37108,0.42934 0.6642,0.60591 0.94832,0.77387 -0.009,-0.009 -0.0263,-0.0266 0.0517,0.22613 0.3711,0.42934 0.6642,0.60593 0.94832,0.77387 -0.009,-0.009 -0.0263,-0.0266 0.0517,0.2261 0.37111,0.42934 0.66421,0.60594 0.94832,0.7739 -0.009,-0.009 -0.0263,-0.0266 0.0517,0.22613 0.37109,0.42932 0.66421,0.60591 0.94833,0.77387 -0.009,-0.009 -0.0263,-0.0266 0.0516,0.22616 0.37105,0.42934 0.66419,0.6059 0.94835,0.77381 -0.009,-0.009 -0.0263,-0.0266 0.0515,0.22628 0.371,0.42935 0.66421,0.60584 0.94845,0.7737 -0.009,-0.009 -0.0262,-0.0265 0.0514,0.22644 0.37092,0.42935 0.66422,0.60574 0.94857,0.77354 -0.009,-0.009 -0.0262,-0.0265 0.0513,0.22657 0.37085,0.42936 0.66423,0.60568 0.94867,0.7734 -0.009,-0.009 -0.0261,-0.0264 0.0513,0.22666 0.37082,0.42937 0.66424,0.60565 0.94872,0.77334 -0.009,-0.009 -0.0261,-0.0264 0.0513,0.22666 0.37082,0.42938 0.66425,0.60565 0.94873,0.77334 -0.009,-0.009 -0.0261,-0.0264 0.0513,0.22663 0.37083,0.42938 0.66423,0.60568 0.9487,0.77339 -0.009,-0.009 -0.0261,-0.0265 0.0513,0.22659 0.37086,0.42937 0.66425,0.60568 0.94868,0.77341 -0.009,-0.009 -0.0261,-0.0265 0.0513,0.22658 0.37085,0.42936 0.66423,0.60568 0.94867,0.77342 -0.009,-0.009 -0.0261,-0.0265 0.0513,0.22658 0.37084,0.42938 0.66423,0.60569 0.94868,0.77342 -0.009,-0.009 -0.0261,-0.0265 0.0513,0.22661 0.37083,0.42938 0.66423,0.60566 0.9487,0.77337 -0.009,-0.009 -0.0261,-0.0264 0.0512,0.22672 0.37077,0.42938 0.66423,0.60561 0.94877,0.77325 -0.009,-0.009 -0.026,-0.0264 0.051,0.22699 0.37064,0.42939 0.66427,0.60543 0.94923,0.77349 -0.009,-0.008 -0.0273,-0.0224 0.0539,0.23948 0.34738,0.51113 0.61352,0.76041 0.93585,1.24648 0.0562,0.236801 0.34096,0.631581 0.34095,0.631581 z"
   id="path6-2-4" /><path
   fill="#f9be9a"
   opacity="1"
   stroke="none"
   d="m 163.64094,159.75846 h -34.83843 c 0,-14.81713 0.33104,-21.28731 0.33104,-33.55246 0.19441,-0.2068 25.28356,0.0561 34.59373,0.0561 0,10.94038 -0.0863,22.68003 -0.0863,33.49633 z M 152.13355,143.206"
   id="path8-56-5" /><path
   fill="#f9be9a"
   opacity="1"
   stroke="none"
   d="m 162.03384,74.300282 h -34.83843 c 0,-14.81713 0.33104,-21.28731 0.33104,-33.55246 0.19441,-0.2068 25.28356,0.0561 34.59373,0.0561 0,10.94038 -0.0863,22.68003 -0.0863,33.49633 z m -11.50739,-16.55246"
   id="path8-56-7-2" /><path
   fill="#f9be9a"
   opacity="1"
   stroke="none"
   d="M 75.61011,74.136764 H 40.77169 c 0,-14.81713 0.33104,-21.28731 0.33104,-33.55246 0.19441,-0.2068 25.28356,0.0561 34.59372,0.0561 0,10.94038 -0.0863,22.68003 -0.0863,33.49633 z M 64.10273,57.584304"
   id="path8-56-9-5" /><path
   d="M 150.93578,58.220876"
   style="fill:#f9be9a;stroke:none"
   id="path1-1-4" /><path
   fill="#f9be9a"
   opacity="1"
   stroke="none"
   d="M 74.66983,160.74313 H 39.83141 c 0,-14.81713 0.33104,-21.28731 0.33104,-33.55246 0.19441,-0.2068 25.28356,0.0561 34.59372,0.0561 0,10.94038 -0.0863,22.68003 -0.0863,33.49633 z M 63.16245,144.19067"
   id="path8-56-6-7" /><path
   fill="#f9bd99"
   opacity="1"
   stroke="none"
   d="m 42.73911,76.184576 c 0.005,0.0047 -10e-4,-0.452439 0.50584,-0.7025 12.17161,-0.262291 23.83609,-0.274505 35.50056,-0.28672 0,0 -0.005,-0.01038 0.0674,0.233406 0.35986,0.418175 0.64682,0.592575 0.93378,0.766968 0,0 -0.007,-0.0107 0.0654,0.233749 0.35949,0.418335 0.64696,0.592217 0.93442,0.766106 0,0 -0.006,-0.01055 0.0655,0.234016 0.35944,0.418358 0.64693,0.592148 0.93441,0.765938 0,0 -0.006,-0.01051 0.0656,0.234093 0.35945,0.418365 0.64692,0.59214 0.93439,0.765915 0,0 -0.006,-0.01051 0.0657,0.234054 0.35948,0.418358 0.64692,0.592156 0.93435,0.765946 0,7e-6 -0.006,-0.01051 0.0657,0.234039 0.35947,0.418358 0.6469,0.592163 0.93433,0.765968 0,0 -0.006,-0.01052 0.0656,0.234047 0.35945,0.418351 0.64687,0.592133 0.9343,0.765908 0,0 -0.006,-0.01048 0.0656,0.234153 0.35941,0.418358 0.64686,0.592087 0.93432,0.765808 0,0 -0.006,-0.01044 0.0656,0.234269 0.35939,0.418365 0.64689,0.592033 0.93438,0.765709 0,0 -0.006,-0.01042 0.0656,0.234306 0.35941,0.418404 0.64694,0.592079 0.93446,0.765755 0,0 -0.006,-0.01048 0.0656,0.234199 0.35946,0.418404 0.64697,0.59214 0.93449,0.765877 0,0 -0.006,-0.01055 0.0655,0.234055 0.3595,0.418403 0.64701,0.592193 0.93453,0.765991 0,0 -0.007,-0.0106 0.0655,0.23397 0.35949,0.418389 0.647,0.592209 0.93451,0.766022 0,0 -0.006,-0.01059 0.0655,0.233986 0.35946,0.418381 0.64697,0.592178 0.93447,0.765984 0,0 -0.006,-0.01056 0.0655,0.234024 0.35946,0.418373 0.64695,0.592155 0.93443,0.765945 0,0 -0.006,-0.01053 0.0656,0.234055 0.35946,0.418365 0.64693,0.592155 0.9344,0.765945 0,0 -0.006,-0.01053 0.0657,0.234016 0.35949,0.418374 0.64693,0.592194 0.93437,0.766022 0,0 -0.006,-0.01057 0.0657,0.23394 0.35952,0.418358 0.64695,0.592217 0.93437,0.766083 0,0 -0.006,-0.01059 0.0656,0.233887 0.35952,0.418358 0.64694,0.592224 0.93435,0.766098 0,0 -0.007,-0.01058 0.0655,0.23397 0.35943,0.418328 0.64686,0.59211 0.93429,0.765892 0,0 -0.006,-0.01044 0.0654,0.234345 0.35925,0.418343 0.64679,0.591904 0.93434,0.765465 0,0 -0.006,-0.01025 0.0653,0.234871 0.35909,0.418411 0.64681,0.59172 0.93453,0.765022 0,0 -0.006,-0.01014 0.0662,0.235268 0.36073,0.419624 0.64935,0.593834 0.93797,0.768043 0,0 -0.0109,-0.0142 -0.0152,0.227867 -0.004,0.242058 -0.006,0.739281 -0.47371,0.752136 -11.50026,0.05189 -22.53321,0.09091 -33.8926,0.06126 -0.76588,-0.06938 -1.20533,-0.07008 -1.64478,-0.07079 0,0 0.0166,0.01669 -0.0116,-0.254761 -0.34914,-0.429748 -0.67007,-0.588035 -0.99099,-0.746322 0,-8e-6 0.0187,0.01727 -0.01,-0.253937 -0.34905,-0.429505 -0.66951,-0.587784 -0.98997,-0.746063 0,0 0.0186,0.01727 -0.0102,-0.253907 -0.34909,-0.429474 -0.66941,-0.587776 -0.98974,-0.746071 0,0 0.0185,0.01725 -0.0103,-0.253944 -0.34909,-0.429481 -0.66938,-0.587761 -0.98966,-0.74604 0,0 0.0185,0.01723 -0.0103,-0.25399 -0.34909,-0.429482 -0.66938,-0.587738 -0.98966,-0.746003 0,0 0.0185,0.01723 -0.0103,-0.254036 -0.34907,-0.429496 -0.66938,-0.587722 -0.98969,-0.745956 0,0 0.0185,0.01722 -0.0103,-0.254074 -0.34905,-0.429497 -0.6694,-0.587708 -0.98974,-0.745918 0,0 0.0184,0.01721 -0.0102,-0.254082 -0.34905,-0.429504 -0.66941,-0.587715 -0.98976,-0.745918 0,-8e-6 0.0185,0.01721 -0.0103,-0.254059 -0.34906,-0.429505 -0.6694,-0.587731 -0.98974,-0.745957 0,0 0.0185,0.01723 -0.0103,-0.253997 -0.34908,-0.429497 -0.66938,-0.587754 -0.98969,-0.74601 0,0 0.0185,0.01723 -0.0104,-0.25396 -0.3491,-0.429481 -0.66936,-0.587768 -0.98963,-0.746048 0,0 0.0185,0.01724 -0.0104,-0.253937 -0.34911,-0.429474 -0.66936,-0.587768 -0.98961,-0.746063 0,0 0.0185,0.01724 -0.0104,-0.253937 -0.34911,-0.429474 -0.66936,-0.587768 -0.9896,-0.746063 0,0 0.0185,0.01724 -0.0104,-0.253937 -0.34911,-0.429481 -0.66936,-0.587776 -0.9896,-0.746063 -10e-6,0 0.0185,0.01724 -0.0104,-0.253937 -0.34911,-0.429474 -0.66936,-0.587768 -0.9896,-0.746063 0,0 0.0185,0.01724 -0.0104,-0.253937 -0.34911,-0.429474 -0.66936,-0.587768 -0.9896,-0.746063 0,0 0.0185,0.01724 -0.0104,-0.253937 -0.34911,-0.429474 -0.66936,-0.587768 -0.98961,-0.746063 0,0 0.0185,0.01724 -0.0104,-0.253937 -0.3491,-0.429481 -0.66935,-0.587768 -0.9896,-0.746055 0,0 0.0185,0.01723 -0.0104,-0.253968 -0.3491,-0.429473 -0.66936,-0.587745 -0.98962,-0.746025 0,0 0.0185,0.01723 -0.0103,-0.253997 -0.34908,-0.42949 -0.66936,-0.587746 -0.98964,-0.745995 0,0 0.0184,0.01722 -0.0104,-0.253975 -0.3491,-0.429474 -0.66935,-0.587753 -0.98961,-0.74604 0,0 0.0183,0.01714 0.0445,-0.313393 -0.66911,-0.78627 -1.36439,-1.242012 -2.05969,-1.697754 0,0 0.0274,0.02306 0.0328,0.0278 z"
   id="path11-2-4" /><path
   fill="#f9bd99"
   opacity="1"
   stroke="none"
   d="m 99.2125,102.11868 c 0,0 0.004,0.4248 -0.0143,0.63591 -2.99769,2.79701 -6.03831,5.3158 -8.94237,7.98326 -5.48228,5.0356 -10.88595,10.15676 -16.67989,15.24976 -1.07401,0.0106 -1.79044,0.0137 -3.34202,0.0274 -10.21236,-0.14112 -19.58955,-0.29278 -28.96674,-0.44443 0,0 0.01,-0.0519 0.25661,-0.33201 0.58587,-0.60052 0.92468,-0.92095 1.2635,-1.24139 6.68245,-6.6794 13.3649,-13.3588 20.48489,-20.49416 0.94753,-0.83828 1.45752,-1.2206 2.43909,-1.56935 11.48146,0.084 22.49134,0.1345 33.50123,0.18497 z"
   id="path143-9-3" /><path
   fill="#f9bd99"
   opacity="1"
   stroke="none"
   d="m 105.13307,101.31405 c 0,0 -0.004,0.4248 0.0143,0.63591 2.99769,2.79701 6.03831,5.3158 8.94237,7.98326 5.48228,5.0356 10.88595,10.15676 16.67989,15.24976 1.07401,0.0106 1.79044,0.0137 3.34202,0.0274 10.21236,-0.14112 19.58955,-0.29278 28.96674,-0.44443 0,0 -0.01,-0.0519 -0.25661,-0.33202 -0.58587,-0.60052 -0.92468,-0.92094 -1.2635,-1.24138 -6.68245,-6.6794 -13.3649,-13.3588 -20.48489,-20.49416 -0.94753,-0.83828 -1.45752,-1.2206 -2.43909,-1.56935 -11.48146,0.084 -22.49134,0.1345 -33.50123,0.18497 z"
   id="path143-9-9-0" /><path
   fill="#f9bd99"
   opacity="1"
   stroke="none"
   d="m 101.20837,101.54802 c -7.261645,7.62915 -15.617011,13.66911 -24.744893,22.79699 0.159013,19.27082 -0.02757,15.60049 -0.02757,33.25203 0.75783,0.0649 12.881958,-10.50486 24.663663,-21.26987 0.19954,-0.16391 0.1088,-20.57192 0.1088,-34.77915 z"
   id="path173-9-8" /><path
   fill="#f9bd99"
   opacity="1"
   stroke="none"
   d="m 103.02059,102 c 7.26164,7.62915 15.61701,13.66911 24.74489,22.79699 -0.095,11.5131 -0.24194,22.79528 -0.97243,34.09172 -0.75783,0.0649 -11.88196,-11.34455 -23.66367,-22.10956 -0.19953,-0.16391 -0.10879,-20.57192 -0.10879,-34.77915 z"
   id="path173-9-8-4" /><path
   fill="#f9bd99"
   opacity="1"
   stroke="none"
   d="m 125.74489,39.4375 c -7.26164,7.62915 -14.86701,13.23161 -23.99489,22.35949 0.095,11.5131 0.24194,22.79528 0.97243,34.09172 0.75783,0.0649 11.88196,-11.34455 23.66367,-22.10956 0.19953,-0.16391 -0.64121,-20.13442 -0.64121,-34.34165 z"
   id="path173-9-8-4-1" /><path
   fill="#f9bd99"
   opacity="1"
   stroke="none"
   d="m 160.30525,75.566492 c -7.62916,7.26164 -13.23162,14.05451 -22.3595,23.18239 -11.5131,-0.095 -13.76969,-0.15993 -34.09172,-0.15993 -0.0649,-0.75783 11.34455,-11.88196 22.10956,-23.66367 0.16391,-0.19953 20.13442,0.64121 34.34166,0.64121 z"
   id="path173-9-8-4-1-0" /><path
   fill="#f9bd99"
   opacity="1"
   stroke="none"
   d="m 77.511555,38.47833 c 7.261645,7.62915 14.867015,13.23161 23.994895,22.35949 -0.095,11.5131 -0.24194,22.79528 -0.97243,34.09172 -0.75783,0.0649 -11.88196,-11.34455 -23.663675,-22.10956 -0.19953,-0.16391 0.64121,-20.13442 0.64121,-34.34165 z"
   id="path173-9-8-4-1-9" /></svg>
